<svg xmlns="http://www.w3.org/2000/svg" width="128" height="128" viewBox="0 0 128 128" fill="none">
  <defs>
    <linearGradient id="shieldGrad" x1="64" y1="8" x2="64" y2="120" gradientUnits="userSpaceOnUse">
      <stop offset="0%" stop-color="#0065FF"/>
      <stop offset="100%" stop-color="#0747A6"/>
    </linearGradient>
    <linearGradient id="lockGrad" x1="64" y1="48" x2="64" y2="96" gradientUnits="userSpaceOnUse">
      <stop offset="0%" stop-color="#FFFFFF"/>
      <stop offset="100%" stop-color="#B3D4FF"/>
    </linearGradient>
  </defs>
  <!-- Shield body -->
  <path d="M64 8L16 28V60C16 88.72 36.48 115.36 64 122C91.52 115.36 112 88.72 112 60V28L64 8Z" fill="url(#shieldGrad)"/>
  <!-- Shield highlight rim -->
  <path d="M64 12L20 30.4V60C20 86.88 39.04 111.84 64 118.4C88.96 111.84 108 86.88 108 60V30.4L64 12Z" fill="none" stroke="rgba(255,255,255,0.2)" stroke-width="1.5"/>
  <!-- Lock shackle -->
  <path d="M50 62V54C50 46.268 56.268 40 64 40C71.732 40 78 46.268 78 54V62" stroke="url(#lockGrad)" stroke-width="5" stroke-linecap="round" fill="none"/>
  <!-- Lock body -->
  <rect x="44" y="62" width="40" height="30" rx="4" fill="url(#lockGrad)"/>
  <!-- Keyhole -->
  <circle cx="64" cy="74" r="5" fill="#0747A6"/>
  <path d="M62 78L64 88L66 78" fill="#0747A6"/>
</svg>
